<?xml version="1.0" encoding="UTF-8" standalone="no"?>
<svg width="36px" height="36px" viewBox="0 0 36 36" version="1.1" xmlns="http://www.w3.org/2000/svg" xmlns:xlink="http://www.w3.org/1999/xlink" xmlns:sketch="http://www.bohemiancoding.com/sketch/ns">
    <!-- Generator: Sketch 3.2.2 (9983) - http://www.bohemiancoding.com/sketch -->
    <title>bikeicon</title>
    <desc>Created with Sketch.</desc>
    <defs></defs>
    <g id="Page-1" stroke="none" stroke-width="1" fill="none" fill-rule="evenodd" sketch:type="MSPage">
        <circle id="Oval-2" fill-opacity="0.7" fill="#FFFFFF" sketch:type="MSShapeGroup" cx="18" cy="18" r="18"></circle>
        <path d="M18,34 C26.836556,34 34,26.836556 34,18 C34,9.163444 26.836556,2 18,2 C9.163444,2 2,9.163444 2,18 C2,26.836556 9.163444,34 18,34 Z" id="Oval-1" fill="#4990E2" sketch:type="MSShapeGroup"></path>
        <path d="M15.75,20 C15.75,16.8243627 13.1756373,14.25 10,14.25 C6.82436269,14.25 4.25,16.8243627 4.25,20 C4.25,23.1756373 6.82436269,25.75 10,25.75 C13.1756373,25.75 15.75,23.1756373 15.75,20 Z M5.75,20 C5.75,17.6527898 7.65278981,15.75 10,15.75 C12.3472102,15.75 14.25,17.6527898 14.25,20 C14.25,22.3472102 12.3472102,24.25 10,24.25 C7.65278981,24.25 5.75,22.3472102 5.75,20 Z" id="Oval-3" fill="#FFFFFF" sketch:type="MSShapeGroup"></path>
        <path d="M31.75,20 C31.75,16.8243627 29.1756373,14.25 26,14.25 C22.8243627,14.25 20.25,16.8243627 20.25,20 C20.25,23.1756373 22.8243627,25.75 26,25.75 C29.1756373,25.75 31.75,23.1756373 31.75,20 Z M21.75,20 C21.75,17.6527898 23.6527898,15.75 26,15.75 C28.3472102,15.75 30.25,17.6527898 30.25,20 C30.25,22.3472102 28.3472102,24.25 26,24.25 C23.6527898,24.25 21.75,22.3472102 21.75,20 Z" id="Oval-4" fill="#FFFFFF" sketch:type="MSShapeGroup"></path>
        <path d="M17.9797589,19.7997283 L17.7089237,20.4452113 L18.9998896,20.9868818 L19.2707249,20.3413988 L22.9649801,11.536863 L23.2358153,10.89138 L21.9448494,10.3497095 L21.6740141,10.9951924 L17.9797589,19.7997283 Z" id="Line" fill="#FFFFFF" sketch:type="MSShapeGroup"></path>
        <path d="M13.702973,9.80486916 L13.2404251,9.80486916 L13.0590401,10.2303689 L8.98130897,19.7960633 L8.70680874,20.4399963 L9.9946746,20.9889967 L10.2691748,20.3450638 L14.346906,10.7793694 L13.702973,11.2048692 L15.2860281,11.2048692 L15.9860281,11.2048692 L15.9860281,9.80486916 L15.2860281,9.80486916 L13.702973,9.80486916 Z" id="Line-2" fill="#FFFFFF" sketch:type="MSShapeGroup"></path>
        <path d="M24.5,11.3 L25.15,11.3 L25.15,10 L24.5,10 L20.5,10 L19.85,10 L19.85,11.3 L20.5,11.3 L24.5,11.3 Z" id="Line" fill="#FFFFFF" sketch:type="MSShapeGroup"></path>
        <path d="M18.5029304,19.2736413 L14.2477704,13.1212291 L13.6720519,14.2194103 L21.6604891,14.2194103 L21.0852167,13.9182357 L25.3505682,20.070648 C25.3458473,20.0638385 25.4820276,19.8000001 25.5029703,19.8000001 L19.4970302,19.8 C19.1790172,19.8 18.6870299,19.5398254 18.5029304,19.2736413 Z M25.5029703,21.2000001 C26.6164946,21.2000001 27.1373999,20.1907879 26.5011128,19.272997 L22.2357614,13.1205848 L22.0269628,12.8194103 L21.6604891,12.8194103 L13.6720519,12.8194103 L12.3368042,12.8194103 L13.0963334,13.9175914 L17.3514934,20.0700035 C17.7959861,20.7126825 18.7174979,21.2 19.4970302,21.2 L25.5029703,21.2000001 Z" id="Line" fill="#FFFFFF" sketch:type="MSShapeGroup"></path>
    </g>
</svg>