<?xml version="1.0" encoding="UTF-8" standalone="no"?>
<svg width="20px" height="20px" viewBox="0 0 20 20" version="1.1" xmlns="http://www.w3.org/2000/svg" xmlns:xlink="http://www.w3.org/1999/xlink" xmlns:sketch="http://www.bohemiancoding.com/sketch/ns">
    <!-- Generator: Sketch 3.2.2 (9983) - http://www.bohemiancoding.com/sketch -->
    <title>parking</title>
    <desc>Created with Sketch.</desc>
    <defs></defs>
    <g id="Page-1" stroke="none" stroke-width="1" fill="none" fill-rule="evenodd" sketch:type="MSPage">
        <rect id="Rectangle-1" fill="#FFFFFF" sketch:type="MSShapeGroup" x="0" y="0" width="20" height="20" rx="4"></rect>
        <rect id="Rectangle-2" fill="#4990E2" sketch:type="MSShapeGroup" x="1" y="1" width="18" height="18" rx="4"></rect>
        <path d="M6.05885567,16 L6.05885567,4.69433594 L9.83710499,4.69433594 C11.2252562,4.69433594 12.1301116,4.7508894 12.5516983,4.86399802 C13.1995022,5.03366095 13.7419013,5.40254375 14.1789119,5.97065749 C14.6159224,6.53877124 14.8344244,7.27268093 14.8344244,8.17240858 C14.8344244,8.86648419 14.7084645,9.45001309 14.4565407,9.92301277 C14.204617,10.3960124 13.8845758,10.7674659 13.4964076,11.0373842 C13.1082394,11.3073025 12.7136504,11.48596 12.312629,11.5733621 C11.7676511,11.6813294 10.9784732,11.7353123 9.94507177,11.7353123 L8.66964005,11.7353123 L8.66964005,16 L6.05885567,16 Z M8.66412698,6.60689029 L8.66412698,9.81504599 L9.70600247,9.81504599 C10.6057301,9.81504599 11.2072533,9.75592192 11.5105901,9.637672 C11.8139268,9.51942208 12.0517084,9.33433802 12.223942,9.08241428 C12.3961756,8.83049054 12.4822911,8.53744079 12.4822911,8.20325623 C12.4822911,7.79195216 12.3614723,7.45263139 12.1198312,7.18528375 C11.87819,6.9179361 11.5722872,6.75084633 11.2021135,6.68400942 C10.9296246,6.63259641 10.3820843,6.60689029 9.55947613,6.60689029 L8.66412698,6.60689029 Z" id="P" fill="#FFFFFF" sketch:type="MSShapeGroup"></path>
    </g>
</svg>